<svg width="118" height="80" viewBox="0 0 118 80" fill="none" xmlns="http://www.w3.org/2000/svg">
<g clip-path="url(#clip0_144_168)">
<path d="M96 44V48H104L101 44H96ZM104.2 41.6L109 48H114C115.106 48 116 48.8937 116 50V54C117.106 54 118 54.8937 118 56C118 57.1063 117.106 58 116 58C114.175 55.5687 111.269 54 108 54C104.731 54 101.825 55.5687 100 58H96C94.175 55.5687 91.2687 54 88 54C84.7313 54 81.825 55.5687 80 58C78.8937 58 78 57.1063 78 56C78 54.8937 78.8937 54 80 54V50C80 48.8937 80.8937 48 82 48H92V43C92 41.3438 93.3438 40 95 40H101C102.256 40 103.444 40.5938 104.2 41.6ZM87.5 56H88.5C89.2563 56 89.8813 56.5563 89.9875 57.2875C90.4625 57.425 90.9187 57.6188 91.3438 57.85C91.9312 57.4125 92.7688 57.4562 93.3 57.9937L94.0063 58.7C94.5438 59.2375 94.5875 60.0688 94.15 60.6562C94.3812 61.0813 94.575 61.5375 94.7125 62.0125C95.4375 62.1188 96 62.7437 96 63.5V64.5C96 65.2563 95.4437 65.8812 94.7125 65.9875C94.575 66.4625 94.3812 66.9187 94.15 67.3438C94.5875 67.9312 94.5438 68.7687 94.0063 69.3L93.3 70.0063C92.7625 70.5438 91.9312 70.5875 91.3438 70.1437C90.9187 70.375 90.4625 70.5687 89.9875 70.7062C89.8813 71.4437 89.2563 72 88.5 72H87.5C86.7437 72 86.1187 71.4437 86.0125 70.7125C85.5375 70.575 85.0813 70.3812 84.6562 70.15C84.0688 70.5937 83.2312 70.5438 82.7 70.0125L81.9875 69.3062C81.45 68.7687 81.4062 67.9375 81.8438 67.35C81.6125 66.9188 81.4188 66.4687 81.2812 65.9875C80.5562 65.8812 80 65.2563 80 64.5V63.5C80 62.7437 80.5562 62.1188 81.2875 62.0125C81.425 61.5375 81.6187 61.0812 81.85 60.65C81.4125 60.0625 81.4563 59.225 81.9938 58.6938L82.7 57.9875C83.2375 57.45 84.0688 57.4062 84.6562 57.8438C85.0813 57.6125 85.5375 57.4188 86.0125 57.2812C86.1187 56.5562 86.7437 55.9937 87.5 55.9937V56ZM88 67C88.7956 67 89.5587 66.6839 90.1213 66.1213C90.6839 65.5587 91 64.7956 91 64C91 63.2044 90.6839 62.4413 90.1213 61.8787C89.5587 61.3161 88.7956 61 88 61C87.2044 61 86.4413 61.3161 85.8787 61.8787C85.3161 62.4413 85 63.2044 85 64C85 64.7956 85.3161 65.5587 85.8787 66.1213C86.4413 66.6839 87.2044 67 88 67ZM106.013 57.2875C106.119 56.5625 106.744 56 107.5 56H108.5C109.256 56 109.881 56.5563 109.987 57.2875C110.462 57.425 110.919 57.6188 111.35 57.85C111.937 57.4125 112.775 57.4562 113.306 57.9937L114.013 58.7C114.55 59.2375 114.594 60.0688 114.15 60.6562C114.381 61.0813 114.575 61.5375 114.713 62.0125C115.438 62.1188 116 62.7437 116 63.5V64.5C116 65.2563 115.444 65.8812 114.713 65.9875C114.575 66.4625 114.381 66.9187 114.15 67.3438C114.588 67.9312 114.544 68.7687 114.013 69.3L113.306 70.0063C112.769 70.5438 111.937 70.5875 111.35 70.1437C110.919 70.375 110.469 70.5687 109.987 70.7062C109.881 71.4437 109.256 72 108.5 72H107.5C106.744 72 106.119 71.4437 106.013 70.7125C105.538 70.575 105.081 70.3812 104.656 70.15C104.069 70.5937 103.231 70.5438 102.7 70.0125L101.994 69.3062C101.456 68.7687 101.413 67.9375 101.856 67.35C101.625 66.9188 101.431 66.4687 101.294 65.9875C100.556 65.8812 100 65.2563 100 64.5V63.5C100 62.7437 100.556 62.1188 101.288 62.0125C101.425 61.5375 101.619 61.0812 101.85 60.65C101.413 60.0625 101.456 59.225 101.987 58.6938L102.694 57.9875C103.231 57.45 104.062 57.4062 104.65 57.8438C105.075 57.6125 105.531 57.4188 106.006 57.2812L106.013 57.2875ZM111 64C111 63.2044 110.684 62.4413 110.121 61.8787C109.559 61.3161 108.796 61 108 61C107.204 61 106.441 61.3161 105.879 61.8787C105.316 62.4413 105 63.2044 105 64C105 64.7956 105.316 65.5587 105.879 66.1213C106.441 66.6839 107.204 67 108 67C108.796 67 109.559 66.6839 110.121 66.1213C110.684 65.5587 111 64.7956 111 64Z" fill="black"/>
</g>
<g clip-path="url(#clip1_144_168)">
<path opacity="0.4" d="M43 61C43 62.3261 43.5268 63.5979 44.4645 64.5355C45.4021 65.4732 46.6739 66 48 66C49.3261 66 50.5979 65.4732 51.5355 64.5355C52.4732 63.5979 53 62.3261 53 61C53 59.6739 52.4732 58.4021 51.5355 57.4645C50.5979 56.5268 49.3261 56 48 56C46.6739 56 45.4021 56.5268 44.4645 57.4645C43.5268 58.4021 43 59.6739 43 61ZM54 44C54 44.5304 54.2107 45.0391 54.5858 45.4142C54.9609 45.7893 55.4696 46 56 46C56.5304 46 57.0391 45.7893 57.4142 45.4142C57.7893 45.0391 58 44.5304 58 44C58 43.4696 57.7893 42.9609 57.4142 42.5858C57.0391 42.2107 56.5304 42 56 42C55.4696 42 54.9609 42.2107 54.5858 42.5858C54.2107 42.9609 54 43.4696 54 44ZM60 44C60 44.5304 60.2107 45.0391 60.5858 45.4142C60.9609 45.7893 61.4696 46 62 46C62.5304 46 63.0391 45.7893 63.4142 45.4142C63.7893 45.0391 64 44.5304 64 44C64 43.4696 63.7893 42.9609 63.4142 42.5858C63.0391 42.2107 62.5304 42 62 42C61.4696 42 60.9609 42.2107 60.5858 42.5858C60.2107 42.9609 60 43.4696 60 44ZM60 50C60 50.5304 60.2107 51.0391 60.5858 51.4142C60.9609 51.7893 61.4696 52 62 52C62.5304 52 63.0391 51.7893 63.4142 51.4142C63.7893 51.0391 64 50.5304 64 50C64 49.4696 63.7893 48.9609 63.4142 48.5858C63.0391 48.2107 62.5304 48 62 48C61.4696 48 60.9609 48.2107 60.5858 48.5858C60.2107 48.9609 60 49.4696 60 50ZM66 44C66 44.5304 66.2107 45.0391 66.5858 45.4142C66.9609 45.7893 67.4696 46 68 46C68.5304 46 69.0391 45.7893 69.4142 45.4142C69.7893 45.0391 70 44.5304 70 44C70 43.4696 69.7893 42.9609 69.4142 42.5858C69.0391 42.2107 68.5304 42 68 42C67.4696 42 66.9609 42.2107 66.5858 42.5858C66.2107 42.9609 66 43.4696 66 44ZM66 50C66 50.5304 66.2107 51.0391 66.5858 51.4142C66.9609 51.7893 67.4696 52 68 52C68.5304 52 69.0391 51.7893 69.4142 51.4142C69.7893 51.0391 70 50.5304 70 50C70 49.4696 69.7893 48.9609 69.4142 48.5858C69.0391 48.2107 68.5304 48 68 48C67.4696 48 66.9609 48.2107 66.5858 48.5858C66.2107 48.9609 66 49.4696 66 50ZM66 56C66 56.5304 66.2107 57.0391 66.5858 57.4142C66.9609 57.7893 67.4696 58 68 58C68.5304 58 69.0391 57.7893 69.4142 57.4142C69.7893 57.0391 70 56.5304 70 56C70 55.4696 69.7893 54.9609 69.4142 54.5858C69.0391 54.2107 68.5304 54 68 54C67.4696 54 66.9609 54.2107 66.5858 54.5858C66.2107 54.9609 66 55.4696 66 56Z" fill="black"/>
<path d="M46 39H50C51.1063 39 52 39.8937 52 41V47H44V41C44 39.8937 44.8937 39 46 39ZM38 55C38 51.6875 40.6875 49 44 49H52C55.3125 49 58 51.6875 58 55V68C58 69.6562 56.6562 71 55 71H41C39.3438 71 38 69.6562 38 68V55ZM53 60C53 58.6739 52.4732 57.4021 51.5355 56.4645C50.5979 55.5268 49.3261 55 48 55C46.6739 55 45.4021 55.5268 44.4645 56.4645C43.5268 57.4021 43 58.6739 43 60C43 61.3261 43.5268 62.5979 44.4645 63.5355C45.4021 64.4732 46.6739 65 48 65C49.3261 65 50.5979 64.4732 51.5355 63.5355C52.4732 62.5979 53 61.3261 53 60Z" fill="black"/>
</g>
<g clip-path="url(#clip2_144_168)">
<path d="M4 40C1.79375 40 0 41.7938 0 44V68C0 70.2062 1.79375 72 4 72H20C22.2062 72 24 70.2062 24 68V50H16C14.8937 50 14 49.1063 14 48V40H4ZM16 40V48H24L16 40ZM9.5625 58.0625L7.625 60L9.5625 61.9375C10.15 62.525 10.15 63.475 9.5625 64.0562C8.975 64.6375 8.025 64.6437 7.44375 64.0562L4.4375 61.0625C3.85 60.475 3.85 59.525 4.4375 58.9438L7.4375 55.9438C8.025 55.3563 8.975 55.3563 9.55625 55.9438C10.1375 56.5313 10.1437 57.4812 9.55625 58.0625H9.5625ZM16.5625 55.9375L19.5625 58.9375C20.15 59.525 20.15 60.475 19.5625 61.0562L16.5625 64.0562C15.975 64.6437 15.025 64.6437 14.4438 64.0562C13.8625 63.4687 13.8563 62.5188 14.4438 61.9375L16.3813 60L14.4438 58.0625C13.8563 57.475 13.8563 56.525 14.4438 55.9438C15.0313 55.3625 15.9812 55.3563 16.5625 55.9438V55.9375Z" fill="black"/>
</g>
<path d="M23.574 22.2H25.772L26.752 29.214H26.78L27.76 22.2H29.958V32H28.502V24.58H28.474L27.354 32H26.066L24.946 24.58H24.918V32H23.574V22.2ZM36.0072 32.14C35.2605 32.14 34.6912 31.93 34.2992 31.51C33.9072 31.0807 33.7112 30.4693 33.7112 29.676V22.2H35.2512V29.788C35.2512 30.124 35.3165 30.3667 35.4472 30.516C35.5872 30.6653 35.7832 30.74 36.0352 30.74C36.2872 30.74 36.4785 30.6653 36.6092 30.516C36.7492 30.3667 36.8192 30.124 36.8192 29.788V22.2H38.3032V29.676C38.3032 30.4693 38.1072 31.0807 37.7152 31.51C37.3232 31.93 36.7539 32.14 36.0072 32.14ZM42.06 22.2H44.342C45.1353 22.2 45.714 22.3867 46.078 22.76C46.442 23.124 46.624 23.6887 46.624 24.454V25.056C46.624 26.0733 46.288 26.7173 45.616 26.988V27.016C45.9893 27.128 46.2507 27.3567 46.4 27.702C46.5587 28.0473 46.638 28.5093 46.638 29.088V30.81C46.638 31.09 46.6473 31.3187 46.666 31.496C46.6847 31.664 46.7313 31.832 46.806 32H45.238C45.182 31.8413 45.1447 31.692 45.126 31.552C45.1073 31.412 45.098 31.16 45.098 30.796V29.004C45.098 28.556 45.0233 28.2433 44.874 28.066C44.734 27.8887 44.4867 27.8 44.132 27.8H43.6V32H42.06V22.2ZM44.16 26.4C44.468 26.4 44.6967 26.3207 44.846 26.162C45.0047 26.0033 45.084 25.7373 45.084 25.364V24.608C45.084 24.2533 45.0187 23.9967 44.888 23.838C44.7667 23.6793 44.5707 23.6 44.3 23.6H43.6V26.4H44.16ZM50.3665 22.2H52.6485C53.4418 22.2 54.0205 22.3867 54.3845 22.76C54.7485 23.124 54.9305 23.6887 54.9305 24.454V25.056C54.9305 26.0733 54.5945 26.7173 53.9225 26.988V27.016C54.2958 27.128 54.5572 27.3567 54.7065 27.702C54.8652 28.0473 54.9445 28.5093 54.9445 29.088V30.81C54.9445 31.09 54.9538 31.3187 54.9725 31.496C54.9912 31.664 55.0378 31.832 55.1125 32H53.5445C53.4885 31.8413 53.4512 31.692 53.4325 31.552C53.4138 31.412 53.4045 31.16 53.4045 30.796V29.004C53.4045 28.556 53.3298 28.2433 53.1805 28.066C53.0405 27.8887 52.7932 27.8 52.4385 27.8H51.9065V32H50.3665V22.2ZM52.4665 26.4C52.7745 26.4 53.0032 26.3207 53.1525 26.162C53.3112 26.0033 53.3905 25.7373 53.3905 25.364V24.608C53.3905 24.2533 53.3252 23.9967 53.1945 23.838C53.0732 23.6793 52.8772 23.6 52.6065 23.6H51.9065V26.4H52.4665ZM58.673 22.2H60.213V32H58.673V22.2ZM64.0263 22.2H68.2263V23.6H65.5663V26.19H67.6803V27.59H65.5663V30.6H68.2263V32H64.0263V22.2ZM72.9763 23.6H71.3663V22.2H76.1263V23.6H74.5163V32H72.9763V23.6ZM80.0793 22.2H82.1653L83.7613 32H82.2213L81.9413 30.054V30.082H80.1913L79.9113 32H78.4833L80.0793 22.2ZM81.7593 28.752L81.0733 23.908H81.0453L80.3733 28.752H81.7593Z" fill="black"/>
<defs>
<clipPath id="clip0_144_168">
<rect width="40" height="32" fill="white" transform="translate(78 40)"/>
</clipPath>
<clipPath id="clip1_144_168">
<rect width="32" height="32" fill="white" transform="translate(38 40)"/>
</clipPath>
<clipPath id="clip2_144_168">
<rect width="24" height="32" fill="white" transform="translate(0 40)"/>
</clipPath>
</defs>
</svg>
